<?xml version="1.0" encoding="utf-8"?>
<!-- Generator: Adobe Illustrator 19.0.0, SVG Export Plug-In . SVG Version: 6.00 Build 0)  -->
<svg version="1.1" id="layer" xmlns="http://www.w3.org/2000/svg" xmlns:xlink="http://www.w3.org/1999/xlink" x="0px" y="0px"
	 viewBox="-153 -46 652 652" style="enable-background:new -153 -46 652 652;" xml:space="preserve">
<style type="text/css">
	.st0{fill:#091E3F;}
	.st1{fill:#0092FF;}
</style>
<path class="st0" d="M47,289.9c-6.1,0-10,2-10,5.6c0,3.6,4.1,5.2,10.2,5.8c8.7,0.7,19.9,2.2,19.9,13.9c0,8.4-7.9,14.3-20,14.3
	c-7.6,0-15-1.7-21.4-8.4l5.1-6.7c4.3,4.3,10.1,6.7,16.2,6.7c5.2,0,10.4-1.6,10.4-5.8c0-4.2-4-5.6-11-6.2
	c-8.8-0.7-19.1-3.3-19.1-13.4c0-10,10.8-13.8,19.5-13.8c6.5-0.1,12.9,2,18.1,6l-5.1,6C56.1,291.2,51.6,289.8,47,289.9L47,289.9z
	 M99.6,320.7c4.9,0,10.7-1.7,13.6-4.9l6.4,6c-4.9,5.2-13,7.7-20.2,7.7c-15.4,0-25.3-9.3-25.3-23.8c0-13.8,10.3-23.8,25.1-23.8
	c13.8,0,23.3,7.8,23.3,23.4c0,1.3-0.1,2.7-0.2,4H84.3C85.1,316.5,90.9,320.7,99.6,320.7z M99.2,290.4c-7.1,0-13.3,3.8-14.8,11.1
	h28.5C112.3,294.3,107.4,290.4,99.2,290.4L99.2,290.4z M168,303c0-7.8-4.6-12.3-12.7-12.3c-3.6,0-7,1.4-9.5,4
	c-2.5,2.6-3.8,6.1-3.7,9.7v24h-9.9v-45.3h9l0.6,6.3c3.9-4.7,9.7-7.5,15.8-7.4c11.3,0,20.2,6.8,20.2,20.9v25.5h-9.9L168,303L168,303z
	 M237.7,328.4h-9.2l-0.6-7.2c-3.7,5.4-9.8,8.5-16.3,8.3c-13.6,0-24-8.7-24-23.8c0-15.4,10.2-23.8,23.8-23.8c5.7,0,13.4,2.7,16.5,8.1
	v-25.8h9.9L237.7,328.4L237.7,328.4z M197.4,305.7c0,9.2,6.5,15,14.8,15c8.1,0,14.7-6.7,14.7-14.9c0-8.2-6.6-14.9-14.7-14.9
	C203.9,290.9,197.4,296.6,197.4,305.7z M256,263.1c1.6-0.1,3.2,0.4,4.3,1.5c1.2,1.1,1.8,2.7,1.8,4.3c-0.2,3.2-2.9,5.8-6.1,5.8
	c-3.2,0-5.9-2.5-6.1-5.8c0-1.6,0.6-3.2,1.8-4.3C252.9,263.5,254.5,262.9,256,263.1z M260.9,328.4H251v-45.3h9.9V328.4z M309.9,303
	c0-7.8-4.6-12.3-12.7-12.3c-3.6,0-7,1.4-9.5,4c-2.5,2.6-3.8,6.1-3.7,9.8v24h-9.9v-45.3h8.9l0.6,6.3c3.9-4.7,9.7-7.5,15.8-7.4
	c11.3,0,20.2,6.8,20.2,20.9v25.5h-9.9C309.8,328.4,309.9,303,309.9,303z M342.2,290.5c3-5.4,10.8-8.5,16.5-8.5
	c13.5,0,23.8,8.4,23.8,23.8c0,15.1-11.1,23.8-23.9,23.8c-5.9,0-12.7-2.5-16.4-8.3l-0.6,7.2h-9.2v-64.2h9.9L342.2,290.5L342.2,290.5z
	 M342.7,305.7c-0.1,4,1.5,7.9,4.4,10.8c2.8,2.8,6.7,4.3,10.7,4.2c8.6,0,14.8-5.8,14.8-15c0-9.2-6.3-14.9-14.8-14.9
	c-4-0.1-7.8,1.4-10.6,4.2C344.3,297.9,342.7,301.7,342.7,305.7z M403.1,328.4h-9.9v-64.2h9.9L403.1,328.4L403.1,328.4z M425.9,307.8
	c0,7.7,4.5,13,12.8,13c3.6,0,7-1.4,9.4-4c2.5-2.6,3.8-6.1,3.6-9.7v-24h9.8v45.3h-8.8l-0.6-6.3c-4,4.8-10,7.6-16.2,7.3
	c-11.5,0-19.8-8-19.8-21.7v-24.8h9.8L425.9,307.8L425.9,307.8z M497.5,320.7c4.9,0,10.7-1.7,13.6-4.9l6.4,6
	c-4.9,5.2-13,7.7-20.2,7.7c-15.4,0-25.3-9.3-25.3-23.8c0-13.8,10.3-23.8,25.2-23.8c13.8,0,23.3,7.8,23.3,23.4c0,1.3-0.1,2.7-0.2,4
	h-38.1C483.1,316.5,488.9,320.7,497.5,320.7L497.5,320.7z M497.2,290.4c-7.2,0-13.3,3.8-14.8,11.1h28.5
	C510.2,294.3,505.3,290.4,497.2,290.4L497.2,290.4z"/>
<path class="st1" d="M-7.8,324.2c-2.2,3.8-5.8,6.6-10,7.8c0.6-2.1,0.9-4.2,0.9-6.4c0-10.7-7.4-19.7-17.3-22.2c2.1-2,4.6-3.5,7.4-4.2
	c4.3-1.2,9-0.6,12.8,1.7C-5.9,305.7-3.1,316.1-7.8,324.2 M-39.6,342.7c-4.4,0-8.6-1.8-11.7-4.8c2.1-0.5,4.1-1.3,5.9-2.4
	c9.2-5.4,13.3-16.3,10.4-26.2c7.1,2,12.3,8.6,12.3,16.3C-22.7,335.1-30.3,342.7-39.6,342.7 M-71.4,324.2c-2.2-3.8-2.8-8.4-1.7-12.6
	c1.5,1.5,3.2,2.9,5,4c3.4,2,7.3,3.1,11.3,3.1c6.2,0,12.1-2.5,16.4-7c1.8,7.2-1.3,15-7.9,18.8c-2.6,1.5-5.5,2.3-8.4,2.3
	C-62.8,332.7-68.4,329.5-71.4,324.2 M-71.4,287.3c2.2-3.8,5.8-6.6,10-7.8c-0.6,2.1-0.9,4.2-0.9,6.4c0,10.7,7.4,19.7,17.3,22.2
	c-5.3,5.1-13.5,6.4-20.2,2.5c-3.9-2.3-6.7-5.9-7.9-10.3C-74.3,295.9-73.7,291.2-71.4,287.3 M-39.6,268.8c4.4,0,8.6,1.8,11.7,4.8
	c-2.1,0.5-4.1,1.3-5.9,2.4c-5.3,3.1-9,8-10.6,13.9c-1.1,4-1,8.3,0.1,12.3c-7.1-2-12.3-8.6-12.3-16.3
	C-56.5,276.5-48.9,268.8-39.6,268.8 M-7.8,287.3c2.2,3.9,2.8,8.4,1.7,12.6c-1.5-1.6-3.2-2.9-5-4c-5.3-3.1-11.4-3.9-17.3-2.3
	c-4,1.1-7.7,3.3-10.5,6.3c-0.7-2.8-0.7-5.7,0.1-8.5c1.2-4.4,4-8.1,7.9-10.3c3.9-2.3,8.5-2.9,12.8-1.7
	C-13.7,280.6-10.1,283.4-7.8,287.3 M-2.7,284.4c-3-5.3-7.9-9.1-13.8-10.7c-1.4-0.4-2.8-0.6-4.2-0.7c-4.2-6.2-11.3-10-18.8-10
	c-7.8,0-14.7,4-18.8,10c-7.5,0.6-14.3,4.8-18.1,11.4c-3,5.3-3.8,11.4-2.3,17.3c0.4,1.4,0.9,2.7,1.5,4c-3.3,6.8-3,14.8,0.8,21.4
	c3.9,6.8,10.8,10.8,18,11.4c4.2,6.2,11.3,10,18.8,10c7.8,0,14.7-4,18.8-10c7.5-0.6,14.3-4.8,18.1-11.4c3.9-6.8,3.9-14.8,0.8-21.4
	C1.3,299,1,290.9-2.7,284.4"/>
</svg>
